<svg width="326" height="326" viewBox="0 0 326 326" fill="none" xmlns="http://www.w3.org/2000/svg">
<g id="wallet" clip-path="url(#clip0_4765_58399)">
<g id="Group 37434">
<g id="Group 37421">
<g id="Group 37414">
<path id="Rectangle 1794" d="M82.6805 207.098L235.624 166.117L308.717 359.243L128.611 401.218L82.6805 207.098Z" fill="url(#paint0_linear_4765_58399)" fill-opacity="0.3"/>
<g id="Vector 1653" filter="url(#filter0_d_4765_58399)">
<path d="M196.403 103.134C208.531 101.059 210.676 109.357 211.882 114.783C212.499 117.559 224.889 173.541 227.593 188.676C229.462 186.938 230.545 185.168 231.138 183.477C232.232 180.356 231.657 177.504 231.277 175.618C231.226 175.362 231.178 175.124 231.138 174.905C230.883 173.504 227.322 156.63 223.783 139.861L223.779 139.839C220.499 124.298 217.24 108.852 216.649 105.899C214.86 96.9546 211.191 94.8729 203.68 95.3641C196.169 95.8552 82.6984 120.978 78.9856 121.822C75.2727 122.666 74.8789 125.816 74.9352 126.435C74.9914 127.054 75.2855 128.205 77.0409 128.205C77.8476 128.205 100.566 123.347 126.061 117.895C156.036 111.486 189.849 104.255 196.403 103.134Z" fill="url(#paint1_linear_4765_58399)"/>
<path fill-rule="evenodd" clip-rule="evenodd" d="M215.538 211.919C215.496 211.937 215.453 211.955 215.411 211.973C180.485 219.838 108.255 235.834 98.4812 237.951C87.9311 240.235 86.0683 231.723 85.1708 227.622L85.1366 227.466L64.8571 131.181C65.4206 133.85 67.5575 135.071 71.3833 134.581C74.5873 134.17 130.489 122.05 164.119 114.758L164.122 114.758C177.888 111.773 187.922 109.598 189.081 109.366C189.394 109.303 189.747 109.225 190.134 109.139C194.675 108.131 203.815 106.102 206.315 116.706C209.028 128.213 223.389 191.707 224.028 195.377C224.663 199.032 225.774 207.593 215.538 211.919Z" fill="url(#paint2_linear_4765_58399)"/>
<path fill-rule="evenodd" clip-rule="evenodd" d="M215.538 211.919C215.496 211.937 215.453 211.955 215.411 211.973C180.485 219.838 108.255 235.834 98.4812 237.951C87.9311 240.235 86.0683 231.723 85.1708 227.622L85.1366 227.466L64.8571 131.181C65.4206 133.85 67.5575 135.071 71.3833 134.581C74.5873 134.17 130.489 122.05 164.119 114.758L164.122 114.758C177.888 111.773 187.922 109.598 189.081 109.366C189.394 109.303 189.747 109.225 190.134 109.139C194.675 108.131 203.815 106.102 206.315 116.706C209.028 128.213 223.389 191.707 224.028 195.377C224.663 199.032 225.774 207.593 215.538 211.919Z" fill="url(#paint3_linear_4765_58399)"/>
<path d="M206.315 116.706C209.028 128.213 223.389 191.707 224.028 195.377C224.663 199.032 225.774 207.593 215.538 211.919C223.146 208.713 229.92 202.647 227.858 190.111C227.788 189.687 227.687 189.202 227.593 188.676C224.889 173.541 212.499 117.559 211.882 114.783C210.676 109.357 208.531 101.059 196.403 103.134C189.849 104.255 156.036 111.486 126.061 117.895C100.566 123.347 77.8476 128.205 77.0409 128.205C75.2855 128.205 74.9914 127.054 74.9352 126.435C74.8789 125.816 75.2727 122.666 78.9856 121.822C82.6984 120.978 196.169 95.8552 203.68 95.3641C211.191 94.8729 214.86 96.9546 216.649 105.899C217.24 108.852 220.499 124.298 223.779 139.839L223.783 139.861C227.322 156.63 230.883 173.504 231.138 174.905C231.178 175.124 231.226 175.362 231.277 175.618C231.657 177.504 232.232 180.356 231.138 183.477C236.971 178.323 235.627 170.621 235.117 167.736L235.104 167.66C234.82 166.054 230.938 148.441 227.184 131.407L227.182 131.402L227.182 131.398C224.334 118.482 221.561 105.9 220.487 100.886C217.995 89.2584 208.859 89.2586 203.212 90.4213C197.564 91.584 98.9305 112.177 83.0728 115.925C70.9722 118.784 64.7051 123.802 64.7051 129.598C64.7051 130.172 64.7555 130.7 64.8571 131.181C65.4206 133.85 67.5575 135.071 71.3833 134.581C74.5873 134.17 130.489 122.05 164.119 114.758L164.122 114.758C177.888 111.773 187.922 109.598 189.081 109.366C189.394 109.303 189.747 109.225 190.134 109.139C194.675 108.131 203.815 106.102 206.315 116.706Z" fill="url(#paint4_linear_4765_58399)"/>
</g>
<path id="Vector 1657" d="M189.081 109.361L188.983 108.871V108.871L189.081 109.361ZM206.316 116.701L206.803 116.588L206.802 116.586L206.316 116.701ZM190.134 109.134L190.243 109.622V109.622L190.134 109.134ZM189.179 109.851C189.499 109.787 189.857 109.708 190.243 109.622L190.026 108.646C189.638 108.732 189.29 108.809 188.983 108.871L189.179 109.851ZM190.243 109.622C192.53 109.114 195.843 108.386 198.883 109.051C200.389 109.381 201.817 110.05 203.017 111.256C204.218 112.463 205.22 114.235 205.829 116.816L206.802 116.586C206.161 113.865 205.083 111.914 203.725 110.551C202.367 109.186 200.756 108.437 199.097 108.074C195.807 107.355 192.279 108.146 190.026 108.646L190.243 109.622ZM164.229 115.241C178 112.256 188.026 110.082 189.179 109.851L188.983 108.871C187.819 109.103 177.779 111.28 164.017 114.264L164.229 115.241ZM205.829 116.814L207.92 125.803L208.894 125.576L206.803 116.588L205.829 116.814Z" fill="url(#paint5_linear_4765_58399)"/>
<g id="Vector 1661" style="mix-blend-mode:soft-light">
<path d="M201.492 91.0032L201.394 90.5129V90.5129L201.492 91.0032ZM220.006 99.7401L220.495 99.6389L220.492 99.6254L220.006 99.7401ZM202.544 90.7764L202.436 90.2883L202.436 90.2883L202.544 90.7764ZM201.59 91.4935C201.909 91.4297 202.268 91.35 202.653 91.2645L202.436 90.2883C202.048 90.3744 201.7 90.4516 201.394 90.5129L201.59 91.4935ZM202.653 91.2645C205.162 90.7076 208.803 90.3164 212.098 91.3357C215.353 92.342 218.311 94.7321 219.519 99.8548L220.492 99.6254C219.2 94.1437 215.973 91.4871 212.394 90.3803C208.857 89.2865 205.017 89.7156 202.436 90.2883L202.653 91.2645ZM176.639 96.8838C190.41 93.8981 200.436 91.7242 201.59 91.4935L201.394 90.5129C200.23 90.7457 190.189 92.9228 176.427 95.9065L176.639 96.8838ZM219.516 99.8413L221.053 107.284L222.033 107.081L220.495 99.639L219.516 99.8413Z" fill="url(#paint6_linear_4765_58399)"/>
</g>
<path id="Vector 1658" d="M223.351 192.771L223.841 192.673H223.841L223.351 192.771ZM213.779 212.018L213.892 212.505L213.894 212.505L213.779 212.018ZM223.578 193.824L223.09 193.932L223.09 193.932L223.578 193.824ZM222.861 192.869C222.924 193.188 223.004 193.547 223.09 193.932L224.066 193.715C223.98 193.327 223.902 192.98 223.841 192.673L222.861 192.869ZM223.09 193.932C223.865 197.424 224.047 201.234 222.779 204.453C221.525 207.636 218.824 210.315 213.664 211.531L213.894 212.505C219.338 211.221 222.322 208.34 223.709 204.819C225.082 201.335 224.861 197.297 224.066 193.715L223.09 193.932ZM217.47 167.918C220.456 181.689 222.63 191.715 222.861 192.869L223.841 192.673C223.608 191.509 221.431 181.468 218.448 167.707L217.47 167.918ZM213.666 211.531L202.273 214.164L202.498 215.138L213.892 212.505L213.666 211.531Z" fill="url(#paint7_linear_4765_58399)"/>
<g id="Vector" style="mix-blend-mode:multiply" filter="url(#filter1_ii_4765_58399)">
<path d="M154.113 161.684L159.853 160.314L155.584 142.422L124.657 149.801L126.792 158.747L132.532 157.378L131.756 154.124L151.202 149.485L154.113 161.684Z" fill="#F99B0D"/>
<path d="M133.447 161.212L127.706 162.581L131.975 180.474L162.902 173.095L160.768 164.148L155.027 165.518L155.804 168.771L136.357 173.411L133.447 161.212Z" fill="#F99B0D"/>
</g>
<g id="Super Walletes" style="mix-blend-mode:multiply" opacity="0.7" filter="url(#filter2_ii_4765_58399)">
<path d="M98.3737 210.823C99.2263 211.334 100.313 211.45 101.62 211.194C102.945 210.933 103.942 210.407 104.591 209.601C105.243 208.813 105.465 207.797 105.222 206.56C104.848 204.653 103.566 203.731 101.405 203.751L100.071 203.775C99.4672 203.784 99.0086 203.69 98.6951 203.495C98.3639 203.303 98.1743 202.992 98.091 202.568C97.9973 202.091 98.0658 201.693 98.3282 201.348C98.5729 201.006 99.0044 200.775 99.6049 200.657C100.188 200.542 100.657 200.597 101.027 200.799C101.383 201.023 101.643 201.412 101.793 201.988L104.018 201.55C103.686 200.423 103.121 199.599 102.289 199.102C101.458 198.605 100.46 198.471 99.2585 198.707C98.0221 198.95 97.0813 199.483 96.4679 200.282C95.8579 201.099 95.6605 202.055 95.8826 203.186C96.2574 205.093 97.5746 206.008 99.8518 205.928L101.038 205.897C101.624 205.891 102.065 205.988 102.378 206.184C102.674 206.382 102.888 206.725 102.982 207.202C103.194 208.28 102.644 208.938 101.337 209.195C100.649 209.33 100.112 209.307 99.7034 209.094C99.2946 208.881 98.989 208.445 98.7864 207.788L96.5963 208.218C96.9099 209.441 97.5035 210.315 98.3737 210.823ZM106.785 206.217C107.285 208.76 108.735 209.796 111.173 209.317C112.392 209.077 113.248 208.579 113.723 207.825C114.199 207.071 114.312 206.059 114.062 204.787L112.986 199.312L110.796 199.742L111.851 205.111C111.986 205.8 111.977 206.315 111.845 206.671C111.714 207.028 111.356 207.263 110.791 207.374C110.208 207.488 109.788 207.406 109.528 207.108C109.268 206.811 109.083 206.334 108.954 205.68L107.899 200.311L105.709 200.741L106.785 206.217ZM114.885 198.938L117.231 210.878L119.421 210.448L118.717 206.862C119.336 207.401 120.102 207.562 121.02 207.382C121.886 207.212 122.551 206.769 123.009 206.019C123.449 205.272 123.562 204.259 123.312 202.988L122.955 201.169C122.705 199.897 122.22 199.02 121.53 198.495C120.826 197.991 120.022 197.819 119.103 198C118.238 198.17 117.601 198.662 117.206 199.455L117.022 198.518L114.885 198.938ZM121.108 203.347C121.361 204.637 121.009 205.366 120.073 205.55C119.579 205.647 119.159 205.565 118.81 205.285C118.465 205.022 118.248 204.57 118.123 203.934L117.797 202.274C117.675 201.655 117.705 201.154 117.922 200.763C118.124 200.393 118.461 200.144 118.938 200.05C119.379 199.963 119.764 200.053 120.087 200.301C120.411 200.549 120.65 201.016 120.782 201.687L121.108 203.347ZM127.019 202.003L132.389 200.948L132.149 199.729C131.882 198.369 131.327 197.414 130.517 196.839C129.711 196.282 128.723 196.109 127.575 196.335C126.392 196.568 125.543 197.101 125.007 197.922C124.471 198.743 124.337 199.833 124.607 201.211L124.826 202.323C125.104 203.736 125.647 204.73 126.486 205.263C127.306 205.798 128.308 205.95 129.492 205.718C130.605 205.499 131.436 205.06 131.985 204.402C132.517 203.747 132.717 202.993 132.543 202.109L132.526 202.021L130.442 202.431L130.435 202.487C130.465 202.83 130.394 203.119 130.181 203.344C129.969 203.569 129.633 203.727 129.209 203.81C128.644 203.921 128.174 203.867 127.815 203.626C127.442 203.405 127.203 202.939 127.068 202.25L127.019 202.003ZM126.829 198.885C127.056 198.547 127.413 198.311 127.943 198.207C128.985 198.002 129.629 198.481 129.858 199.647L129.903 199.877L126.724 200.501L126.714 200.448C126.579 199.759 126.605 199.241 126.829 198.885ZM133.099 195.36L134.904 204.544L137.094 204.114L136.011 198.603C135.89 197.985 135.955 197.477 136.207 197.079C136.459 196.681 136.866 196.417 137.396 196.313C137.714 196.251 138.081 196.252 138.529 196.292L138.127 194.244C137.89 194.253 137.636 194.267 137.371 194.319C136.894 194.412 136.491 194.602 136.155 194.851C135.804 195.122 135.56 195.463 135.424 195.894L135.237 194.94L133.099 195.36ZM156.392 187.665L154.237 188.088L154.196 197.03L150.634 188.796L147.755 189.362L147.661 198.314L144.134 190.073L141.82 190.528L147.217 202.125L149.319 201.712L149.754 192.253L153.752 200.841L155.872 200.424L156.392 187.665ZM163.705 190.098C162.962 189.676 162.023 189.567 160.857 189.796C159.815 190.001 159.037 190.429 158.534 191.041C158.013 191.657 157.848 192.405 158.014 193.253L158.028 193.323L160.059 192.924L160.049 192.871C159.983 192.536 160.037 192.25 160.243 191.989C160.448 191.729 160.745 191.56 161.169 191.477C162.141 191.286 162.732 191.684 162.923 192.655L163.066 193.379L161.123 193.761C160.134 193.955 159.405 194.355 158.951 194.94C158.48 195.528 158.343 196.233 158.503 197.046C158.68 197.946 159.066 198.604 159.693 198.995C160.306 199.406 161.079 199.511 162.032 199.324C162.527 199.227 162.919 199.076 163.209 198.873C163.5 198.669 163.772 198.377 164.028 197.996L164.184 198.791L166.303 198.375L165.117 192.334C164.908 191.274 164.431 190.524 163.705 190.098ZM163.34 196.829C163.145 197.143 162.745 197.35 162.18 197.461C161.279 197.638 160.765 197.353 160.612 196.576C160.466 195.834 160.853 195.373 161.771 195.193L163.361 194.881L163.489 195.534C163.597 196.082 163.535 196.516 163.34 196.829ZM168.792 197.134C169.384 197.531 170.118 197.625 171.001 197.452L172.008 197.254L171.637 195.364L170.895 195.51C170.577 195.572 170.351 195.543 170.179 195.412C170.006 195.281 169.901 195.026 169.825 194.638L168.006 185.383L165.816 185.813L167.662 195.209C167.839 196.11 168.204 196.754 168.792 197.134ZM173.863 196.137C174.455 196.535 175.189 196.629 176.072 196.455L177.079 196.258L176.708 194.368L175.966 194.513C175.648 194.576 175.422 194.547 175.25 194.416C175.077 194.285 174.972 194.03 174.896 193.641L173.077 184.386L170.887 184.817L172.733 194.213C172.91 195.114 173.275 195.758 173.863 196.137ZM179.592 191.673L184.962 190.618L184.722 189.399C184.455 188.039 183.9 187.084 183.09 186.51C182.284 185.953 181.296 185.78 180.148 186.006C178.965 186.238 178.116 186.772 177.58 187.592C177.044 188.413 176.91 189.504 177.18 190.881L177.399 191.994C177.677 193.407 178.22 194.401 179.059 194.933C179.879 195.469 180.881 195.621 182.065 195.388C183.178 195.169 184.009 194.731 184.558 194.073C185.09 193.418 185.29 192.663 185.116 191.78L185.099 191.692L183.015 192.101L183.008 192.158C183.038 192.5 182.967 192.789 182.754 193.015C182.542 193.24 182.206 193.398 181.782 193.481C181.217 193.592 180.747 193.537 180.388 193.296C180.015 193.076 179.776 192.609 179.641 191.92L179.592 191.673ZM179.402 188.555C179.629 188.217 179.986 187.982 180.516 187.878C181.558 187.673 182.202 188.152 182.431 189.317L182.476 189.547L179.297 190.172L179.287 190.119C179.151 189.43 179.178 188.911 179.402 188.555ZM188.561 186.059L190.328 185.712L190.026 184.175L188.259 184.522L187.756 181.961L185.733 183.147L186.087 184.949L184.815 185.199L185.117 186.735L186.389 186.485L187.371 191.484C187.531 192.296 187.889 192.905 188.477 193.284C189.065 193.664 189.764 193.765 190.611 193.599L191.654 193.394L191.289 191.539L190.6 191.675C190 191.793 189.641 191.552 189.516 190.916L188.561 186.059ZM194.322 188.779L199.692 187.724L199.452 186.505C199.185 185.145 198.63 184.19 197.82 183.616C197.014 183.059 196.026 182.886 194.878 183.111C193.695 183.344 192.846 183.878 192.31 184.698C191.774 185.519 191.64 186.609 191.91 187.987L192.129 189.1C192.407 190.513 192.95 191.507 193.789 192.039C194.61 192.575 195.612 192.726 196.795 192.494C197.908 192.275 198.739 191.837 199.288 191.179C199.82 190.524 200.02 189.769 199.847 188.886L199.829 188.798L197.745 189.207L197.738 189.263C197.768 189.606 197.697 189.895 197.484 190.12C197.272 190.346 196.936 190.503 196.512 190.587C195.947 190.698 195.477 190.643 195.118 190.402C194.745 190.182 194.506 189.715 194.371 189.026L194.322 188.779ZM194.132 185.661C194.359 185.323 194.716 185.088 195.246 184.984C196.288 184.779 196.932 185.258 197.161 186.423L197.207 186.653L194.027 187.278L194.017 187.225C193.882 186.536 193.908 186.017 194.132 185.661ZM202.714 190.542C203.451 190.929 204.33 191.013 205.389 190.805C206.484 190.59 207.319 190.169 207.907 189.522C208.478 188.878 208.689 188.084 208.501 187.13C208.352 186.371 208.004 185.815 207.459 185.464C206.916 185.13 206.172 184.983 205.225 185.022L204.117 185.075C203.683 185.105 203.361 185.058 203.154 184.934C202.949 184.828 202.819 184.633 202.764 184.35C202.708 184.068 202.766 183.8 202.978 183.574C203.173 183.353 203.491 183.198 203.951 183.108C204.392 183.021 204.763 183.04 205.045 183.168C205.327 183.296 205.516 183.516 205.579 183.834L205.589 183.887L207.621 183.488L207.6 183.382C207.503 182.887 207.253 182.459 206.891 182.109C206.529 181.758 206.06 181.52 205.485 181.394C204.91 181.269 204.285 181.263 203.614 181.395C202.607 181.593 201.829 182.021 201.294 182.658C200.759 183.295 200.576 184.046 200.746 184.912C200.899 185.689 201.225 186.23 201.747 186.55C202.254 186.89 202.998 187.038 203.944 186.998L204.947 186.967C205.42 186.947 205.78 187.005 206.02 187.104C206.245 187.225 206.393 187.416 206.448 187.699C206.518 188.052 206.425 188.327 206.195 188.556C205.947 188.788 205.59 188.931 205.113 189.025C204.654 189.115 204.283 189.096 203.962 188.958C203.642 188.819 203.466 188.578 203.397 188.225L203.39 188.19L201.341 188.592L201.355 188.663C201.525 189.528 201.978 190.155 202.714 190.542Z" fill="url(#paint8_linear_4765_58399)"/>
</g>
<g id="Vector 1654" filter="url(#filter3_d_4765_58399)">
<path fill-rule="evenodd" clip-rule="evenodd" d="M123.246 168.062C120.27 173.578 116.104 189.531 123.246 209.215C129.343 224.238 143.931 217.924 144.149 213.569C145.288 214.74 146.726 216.38 148.434 218.327C158.476 229.779 177.84 251.86 200.543 251.673C221.794 251.499 231.116 239.508 233.12 233.534C207.391 237.249 170.755 197.21 164.709 190.602C164.348 190.207 164.096 189.931 163.962 189.792C161.584 187.313 160.524 184.273 162.549 181.918C167.45 177.631 167.232 175.295 165.885 173.551C157.931 166.393 149.751 164.056 142.111 163.824C134.066 163.58 127.124 165.894 123.246 168.062Z" fill="#84FF24"/>
<path d="M165.885 173.551C167.232 175.295 167.45 177.631 162.549 181.918C160.524 184.273 161.584 187.313 163.962 189.792C164.096 189.931 164.348 190.207 164.709 190.602C170.755 197.21 207.391 237.249 233.12 233.534C235.404 230.472 236.49 220.093 224.359 205.745C223.617 206.715 221.106 209.164 217.938 210.729C219.6 213.075 221.726 220.372 217.049 221.307C214.554 221.806 208.913 220.842 200.212 215.33C192.595 210.505 182.633 202.194 170.386 188.328C168.047 185.989 166.748 183.568 168.567 180.973C170.386 178.377 173.912 173.905 168.567 170.363C163.222 166.822 154.249 164.008 142.111 163.824C149.751 164.056 157.931 166.393 165.885 173.551Z" fill="url(#paint9_linear_4765_58399)"/>
<path d="M217.049 221.307C221.726 220.372 219.6 213.075 217.938 210.729C215.509 211.928 208.823 213.643 200.212 215.33C208.913 220.842 214.554 221.806 217.049 221.307Z" fill="#7AB530"/>
</g>
<g id="Vector 1659" filter="url(#filter4_d_4765_58399)">
<path d="M165.897 173.551L166.292 173.245L166.265 173.21L166.231 173.18L165.897 173.551ZM162.561 181.918L162.232 181.541L162.205 181.565L162.182 181.592L162.561 181.918ZM163.974 189.791L164.334 189.445L164.334 189.445L163.974 189.791ZM164.721 190.601L164.352 190.939L164.359 190.947L164.367 190.955L164.721 190.601ZM164.721 190.601L165.09 190.264L165.082 190.256L165.074 190.248L164.721 190.601ZM165.501 173.857C166.105 174.639 166.425 175.496 166.092 176.641C165.743 177.839 164.661 179.417 162.232 181.541L162.89 182.294C165.362 180.132 166.622 178.398 167.052 176.921C167.498 175.39 167.035 174.207 166.292 173.245L165.501 173.857ZM162.182 181.592C161.056 182.901 160.788 184.416 161.128 185.919C161.464 187.4 162.385 188.858 163.613 190.138L164.334 189.445C163.184 188.246 162.386 186.945 162.104 185.698C161.826 184.472 162.041 183.29 162.94 182.244L162.182 181.592ZM142.108 164.324C149.644 164.553 157.707 166.853 165.562 173.923L166.231 173.18C158.179 165.932 149.881 163.559 142.138 163.324L142.108 164.324ZM165.09 190.264C164.731 189.872 164.474 189.591 164.334 189.445L163.613 190.138C163.742 190.272 163.988 190.541 164.352 190.939L165.09 190.264ZM195.142 218.073C180.567 207.178 168.361 193.839 165.09 190.264L164.352 190.939C167.626 194.517 179.887 207.918 194.543 218.874L195.142 218.073ZM165.074 190.248L165.074 190.248L164.367 190.955L164.367 190.955L165.074 190.248Z" fill="url(#paint10_linear_4765_58399)" fill-opacity="0.5"/>
</g>
<g id="Vector 1656" filter="url(#filter5_d_4765_58399)">
<path d="M109.846 114.221C111.903 116.106 113.858 114.656 114.475 113.449C114.888 112.641 115.943 111.895 116.374 111.667C115.179 111.177 113.912 110.415 113.419 109.286C112.596 107.4 112.843 105.091 114.468 103.933C119.096 100.635 127.662 103.898 130.062 105.783C131.597 105.465 134.709 104.799 138.27 104.032C135.442 102.575 107.275 87.9078 101.447 95.536C96.1443 102.476 105.74 110.693 109.063 113.539C109.393 113.821 109.661 114.05 109.846 114.221Z" fill="url(#paint11_linear_4765_58399)"/>
<path fill-rule="evenodd" clip-rule="evenodd" d="M109.846 114.221C111.903 116.106 113.858 114.656 114.475 113.449C114.888 112.641 115.943 111.895 116.374 111.667C116.498 111.591 116.242 111.737 116.374 111.667C117.034 111.265 118.192 110.792 119.103 110.792C121.628 110.792 124.267 113.276 127.912 124.247C131.557 135.218 131.016 144.647 129.731 150.99C123.903 153.475 107.875 155.447 100.418 153.647C92.9615 151.847 91.528 148.503 93.7814 145.884C95.5841 143.788 96.0348 141.912 96.0348 141.236C95.9503 139.461 94.2321 137.631 92.4333 135.942C92.3263 135.842 92.2131 135.737 92.0946 135.627L92.094 135.626C89.8889 133.577 85.847 129.821 85.8477 123.477C86.9447 112.986 96.7042 100.479 101.447 95.536C96.1443 102.476 105.74 110.693 109.063 113.539C109.393 113.821 109.661 114.05 109.846 114.221Z" fill="#84FF24"/>
<path d="M127.912 124.247C131.557 135.218 131.016 144.647 129.731 150.99C129.835 150.949 129.943 150.907 130.069 150.864C130.893 150.58 132.195 150.133 134.351 147.902C135.723 141.302 135.284 133.078 133.656 126.221C132.027 119.365 128.009 109.504 123.124 108.39C119.215 107.498 116.998 110.204 116.374 111.667C117.034 111.265 118.192 110.792 119.103 110.792C121.628 110.792 124.267 113.276 127.912 124.247Z" fill="#D1FF4F"/>
<path d="M130.062 105.783C127.662 103.898 119.096 100.635 114.468 103.933C112.843 105.091 112.596 107.4 113.419 109.286C118.849 108.119 129.78 105.783 130.062 105.783Z" fill="#7AB530"/>
</g>
<g id="Vector 1660" filter="url(#filter6_d_4765_58399)">
<path d="M121.661 111.608L122.002 111.242L122.016 111.256L122.03 111.271L121.661 111.608ZM113.581 114.23L113.928 114.59L113.897 114.62L113.861 114.645L113.581 114.23ZM107.347 111.806L107.676 111.429L107.347 111.806ZM105.237 109.745L104.859 110.072L104.859 110.072L105.237 109.745ZM121.321 111.974C120.933 111.614 120.549 111.37 120.141 111.245C119.739 111.122 119.28 111.106 118.725 111.252C117.586 111.551 116.068 112.523 113.928 114.59L113.233 113.871C115.397 111.781 117.07 110.653 118.471 110.285C119.186 110.097 119.834 110.106 120.433 110.289C121.027 110.47 121.54 110.813 122.002 111.242L121.321 111.974ZM113.861 114.645C113.196 115.094 112.613 115.382 112.053 115.473C111.466 115.567 110.955 115.438 110.458 115.156C109.984 114.887 109.507 114.47 108.976 113.979C108.433 113.476 107.815 112.877 107.019 112.183L107.676 111.429C108.487 112.137 109.131 112.759 109.656 113.245C110.193 113.743 110.591 114.082 110.951 114.286C111.289 114.478 111.572 114.537 111.893 114.485C112.241 114.429 112.679 114.236 113.301 113.816L113.861 114.645ZM129.457 132.784C127.604 122.071 125.552 116.6 121.292 111.946L122.03 111.271C126.488 116.141 128.581 121.847 130.442 132.614L129.457 132.784ZM105.615 109.418C105.771 109.599 106.243 110.064 106.716 110.519C107.185 110.972 107.615 111.376 107.676 111.429L107.019 112.183C106.934 112.109 106.484 111.685 106.022 111.239C105.563 110.797 105.052 110.296 104.859 110.072L105.615 109.418ZM81.5336 76.8816C90.6618 92.6188 102.437 105.747 105.615 109.418L104.859 110.072C101.69 106.412 89.8516 93.2151 80.6685 77.3834L81.5336 76.8816Z" fill="url(#paint12_linear_4765_58399)" fill-opacity="0.5"/>
</g>
<g id="Vector 1655" filter="url(#filter7_d_4765_58399)">
<path d="M222.131 108.172L204.13 132.116L175.178 138.017C167.128 139.802 162.499 145.654 164.109 155.317C162.89 148.001 169.937 143.084 175.738 141.746C177.218 141.405 182.345 140.309 189.88 138.848C195.917 137.677 202.304 136.439 206.484 135.573L224.628 110.946L221.651 106.264L222.131 108.172Z" fill="#FEFE6D"/>
<path fill-rule="evenodd" clip-rule="evenodd" d="M189.88 138.848C195.917 137.677 202.304 136.439 206.484 135.573C206.484 137.671 210.545 153.877 212.576 161.718C209.106 162.511 203.813 163.768 198.474 165.036C189.227 166.661 182.351 167.98 179.68 168.382C175.164 168.257 166.592 166.658 164.109 155.317C162.89 148.001 169.937 143.084 175.738 141.746C177.218 141.405 182.345 140.309 189.88 138.848Z" fill="#FFC700"/>
<path d="M212.576 161.718L230.733 143.133L224.628 110.946L206.484 135.573C206.484 137.671 210.545 153.877 212.576 161.718Z" fill="#FFD233"/>
</g>
<g id="Ellipse 1299" filter="url(#filter8_d_4765_58399)">
<path d="M282.523 166.115C282.523 171.698 279.194 177.093 272.999 182.07C266.809 187.043 257.821 191.544 246.67 195.333C224.373 202.91 193.539 207.606 159.457 207.606C125.374 207.606 94.5398 202.91 72.2431 195.333C61.0923 191.544 52.1044 187.043 45.9142 182.07C39.7194 177.093 36.3906 171.698 36.3906 166.115C36.3906 160.532 39.7194 155.138 45.9142 150.161C52.1044 145.187 61.0923 140.686 72.2431 136.897C94.5398 129.32 125.374 124.625 159.457 124.625C193.539 124.625 224.373 129.32 246.67 136.897C257.821 140.686 266.809 145.187 272.999 150.161C279.194 155.138 282.523 160.532 282.523 166.115Z" stroke="url(#paint13_linear_4765_58399)" shape-rendering="crispEdges"/>
</g>
<path id="Vector 1651" d="M247.716 136.404C246.184 140.235 242.974 140.919 241.561 140.782C244.168 142.967 246.781 147.499 247.716 151.725C248.966 149.204 251.312 146.937 253.872 146.937C250.406 143.02 249.34 140.782 247.716 136.404Z" fill="#FEFE6D"/>
<path id="Vector 1662" d="M58.2868 7.24502C56.1878 7.43073 55.4732 7.09529 54.6806 5.29986C54.6792 7.31483 54.4697 8.17798 52.6251 9.50055C54.6806 9.18731 55.759 9.90313 56.4836 11.4965C56.4407 9.39761 56.7712 8.82728 58.2868 7.24502Z" fill="#FEFE6D"/>
<path id="Vector 1664" d="M265.849 33.3544C263.75 33.5401 263.036 33.2047 262.243 31.4092C262.242 33.4242 262.032 34.2874 260.188 35.6099C262.243 35.2967 263.321 36.0125 264.046 37.6059C264.003 35.507 264.334 34.9367 265.849 33.3544Z" fill="#FEFE6D"/>
<path id="Vector 1666" d="M17.2102 226.449C13.3087 227.596 11.8295 227.232 9.6491 224.135C10.4102 227.948 10.3409 229.661 7.3517 232.863C11.1225 231.491 13.4344 232.437 15.4095 235.177C14.5327 231.222 14.942 230.017 17.2102 226.449Z" fill="#FEFE6D"/>
<path id="Vector 1663" d="M49.2805 5.37115C49.2196 4.44691 49.3741 4.13626 50.1709 3.80572C49.2855 3.78515 48.9594 3.88271 48.4385 3.05605C48.5064 4.02993 48.1374 4.234 47.43 4.53665C48.3528 4.53858 48.6002 4.68948 49.2805 5.37115Z" fill="#FFFFB2"/>
<path id="Vector 1665" d="M256.114 34.8887C256.054 33.9645 256.208 33.6538 257.005 33.3233C256.119 33.3027 255.793 33.4003 255.272 32.5736C255.34 33.5475 254.971 33.7516 254.264 34.0542C255.187 34.0562 255.434 34.2071 256.114 34.8887Z" fill="#FEFE6D" fill-opacity="0.5"/>
<path id="Vector 1667" d="M25.0216 232.631C24.7804 231.736 24.8709 231.401 25.5873 230.921C24.715 231.075 24.4144 231.234 23.7413 230.526C23.9992 231.468 23.6775 231.74 23.0433 232.176C23.9485 231.996 24.2207 232.096 25.0216 232.631Z" fill="#FEFE6D" fill-opacity="0.5"/>
<path id="Vector 1652" d="M252.262 130.377C251.861 131.38 251.02 131.559 250.65 131.523C251.333 132.095 252.017 133.281 252.262 134.387C252.589 133.727 253.203 133.134 253.873 133.134C252.966 132.109 252.687 131.523 252.262 130.377Z" fill="#FFFFB2"/>
<circle id="Ellipse 1300" cx="180.098" cy="154.344" r="6.16399" fill="#FEFE6D"/>
<path id="Ellipse 1301" d="M182.928 154.164C182.478 154.614 182.141 153.185 181.09 152.134C180.039 151.083 178.673 150.809 179.123 150.36C179.573 149.91 181.193 149.93 182.244 150.98C183.294 152.031 183.377 153.714 182.928 154.164Z" fill="white"/>
</g>
<path id="Vector 1663_2" d="M78.5272 101.138L40.3594 26.7953L53.9436 21.3966L94.8395 86.1488L78.5272 101.138Z" fill="url(#paint14_linear_4765_58399)" fill-opacity="0.3"/>
<path id="Vector 1664_2" d="M300.129 165.093L253.211 69.8129C253.211 69.8129 256.537 69.3049 268.015 63.3918C279.494 57.4787 278.691 50.5176 278.691 50.5176L327.197 140.854L300.129 165.093Z" fill="url(#paint15_linear_4765_58399)" fill-opacity="0.3"/>
<path id="Vector 1662_2" d="M36.7486 388.136L2.63477 259.485C15.5543 253.554 20.0011 280.423 42.751 267.616L80.6737 382.988L36.7486 388.136Z" fill="url(#paint16_linear_4765_58399)"/>
</g>
<g id="Group 37402" filter="url(#filter9_df_4765_58399)">
<g id="Ellipse 1247" filter="url(#filter10_d_4765_58399)">
<path d="M44.9238 26.7718C41.5728 22.376 40.7739 17.3444 43.1244 15.4991C43.1356 15.4902 43.147 15.4815 43.1584 15.4728C45.5504 13.6493 50.219 15.7516 53.586 20.1684C56.9531 24.5852 57.7435 29.6439 55.3515 31.4674C52.9595 33.2909 48.2908 31.1886 44.9238 26.7718Z" fill="url(#paint17_linear_4765_58399)"/>
<path d="M55.3515 31.4674C52.9595 33.2909 48.2908 31.1886 44.9238 26.7718C41.5728 22.376 40.7739 17.3444 43.1244 15.4991L40.1151 17.8272C37.723 19.6507 38.5135 24.7095 41.8805 29.1263C45.2475 33.5431 49.9162 35.6454 52.3082 33.8219L55.3515 31.4674Z" fill="url(#paint18_linear_4765_58399)"/>
</g>
<g id="Ellipse 1248">
<path fill-rule="evenodd" clip-rule="evenodd" d="M54.1332 30.0138C54.9417 28.31 54.008 25.0348 51.7168 22.0293C49.1 18.5967 45.6749 16.7782 43.9346 17.8536C44.0769 17.5536 44.2733 17.3023 44.5259 17.1098C46.2125 15.824 49.7643 17.6471 52.4589 21.1818C55.1535 24.7166 55.9706 28.6244 54.2839 29.9102C54.2352 29.9473 54.1849 29.9818 54.1332 30.0138Z" fill="#FF9900"/>
<path d="M54.1332 30.0138C54.9417 28.31 54.008 25.0348 51.7168 22.0293C49.1 18.5967 45.6749 16.7782 43.9346 17.8536C43.126 19.5574 44.0597 22.8326 46.3509 25.8381C48.9677 29.2707 52.3928 31.0892 54.1332 30.0138Z" fill="url(#paint19_linear_4765_58399)"/>
</g>
</g>
<g id="Group 37429" filter="url(#filter11_df_4765_58399)">
<g id="Ellipse 1247_2" filter="url(#filter12_d_4765_58399)">
<path d="M270.265 61.7015C265.577 69.4318 258.394 73.6567 254.179 71.1816C254.158 71.1697 254.138 71.1577 254.118 71.1456C249.912 68.5941 250.321 60.2291 255.032 52.4617C259.743 44.6944 266.973 40.4661 271.179 43.0176C275.386 45.5691 274.977 53.9342 270.265 61.7015Z" fill="url(#paint20_linear_4765_58399)"/>
<path d="M271.179 43.0176C275.386 45.5691 274.977 53.9342 270.265 61.7015C265.577 69.4318 258.394 73.6567 254.179 71.1816L259.523 74.3712C263.729 76.9227 270.959 72.6944 275.67 64.9271C280.381 57.1597 280.79 48.7947 276.584 46.2432L271.179 43.0176Z" fill="url(#paint21_linear_4765_58399)"/>
</g>
<g id="Ellipse 1248_2">
<path fill-rule="evenodd" clip-rule="evenodd" d="M269.681 45.7357C266.604 45.5234 262.175 48.9035 258.97 54.1889C255.308 60.2255 254.588 66.5275 257.265 68.5343C256.724 68.4969 256.223 68.3481 255.779 68.0787C252.813 66.2796 253.465 59.782 257.236 53.5658C261.006 47.3497 266.467 43.769 269.433 45.5681C269.519 45.6201 269.602 45.676 269.681 45.7357Z" fill="#FF9900"/>
<path d="M269.681 45.7357C266.604 45.5234 262.175 48.9035 258.97 54.1889C255.308 60.2255 254.588 66.5275 257.265 68.5343C260.343 68.7466 264.771 65.3665 267.977 60.081C271.638 54.0444 272.359 47.7424 269.681 45.7357Z" fill="url(#paint22_linear_4765_58399)"/>
</g>
</g>
<g id="Group 37430" filter="url(#filter13_df_4765_58399)">
<g id="Ellipse 1247_3" filter="url(#filter14_d_4765_58399)">
<path d="M19.7488 267.8C28.751 274.424 38.9511 275.866 42.6012 271.051C42.6187 271.028 42.636 271.004 42.6532 270.981C46.2576 266.082 41.8469 256.716 32.8016 250.06C23.7563 243.405 13.5016 241.981 9.89716 246.879C6.29272 251.778 10.7034 261.145 19.7488 267.8Z" fill="url(#paint23_linear_4765_58399)"/>
<path d="M9.89716 246.879C6.29272 251.778 10.7034 261.145 19.7488 267.8C28.751 274.424 38.9511 275.866 42.6012 271.051L37.9976 277.215C34.3931 282.113 24.1385 280.689 15.0932 274.034C6.04783 267.378 1.63713 258.012 5.24157 253.113L9.89716 246.879Z" fill="url(#paint24_linear_4765_58399)"/>
</g>
<g id="Ellipse 1248_3">
<path fill-rule="evenodd" clip-rule="evenodd" d="M12.8831 249.281C16.2999 247.588 22.9537 249.363 29.1088 253.892C36.1386 259.065 39.9327 265.927 37.8184 269.483C38.4201 269.184 38.9214 268.779 39.3019 268.262C41.8435 264.807 38.0355 257.689 30.7966 252.363C23.5577 247.037 15.6291 245.519 13.0875 248.973C13.0141 249.073 12.946 249.176 12.8831 249.281Z" fill="#FF9900"/>
<path d="M12.8831 249.281C16.2999 247.588 22.9537 249.363 29.1088 253.892C36.1386 259.065 39.9327 265.927 37.8184 269.483C34.4016 271.176 27.7479 269.401 21.5928 264.872C14.563 259.699 10.7688 252.837 12.8831 249.281Z" fill="url(#paint25_linear_4765_58399)"/>
</g>
</g>
</g>
</g>
<defs>
<filter id="filter0_d_4765_58399" x="-28.2949" y="0.929688" width="356.916" height="334.404" filterUnits="userSpaceOnUse" color-interpolation-filters="sRGB">
<feFlood flood-opacity="0" result="BackgroundImageFix"/>
<feColorMatrix in="SourceAlpha" type="matrix" values="0 0 0 0 0 0 0 0 0 0 0 0 0 0 0 0 0 0 127 0" result="hardAlpha"/>
<feOffset dy="4"/>
<feGaussianBlur stdDeviation="46.5"/>
<feComposite in2="hardAlpha" operator="out"/>
<feColorMatrix type="matrix" values="0 0 0 0 0.92 0 0 0 0 1 0 0 0 0 0 0 0 0 0.28 0"/>
<feBlend mode="normal" in2="BackgroundImageFix" result="effect1_dropShadow_4765_58399"/>
<feBlend mode="normal" in="SourceGraphic" in2="effect1_dropShadow_4765_58399" result="shape"/>
</filter>
<filter id="filter1_ii_4765_58399" x="124.556" y="142.322" width="39.3461" height="39.1527" filterUnits="userSpaceOnUse" color-interpolation-filters="sRGB">
<feFlood flood-opacity="0" result="BackgroundImageFix"/>
<feBlend mode="normal" in="SourceGraphic" in2="BackgroundImageFix" result="shape"/>
<feColorMatrix in="SourceAlpha" type="matrix" values="0 0 0 0 0 0 0 0 0 0 0 0 0 0 0 0 0 0 127 0" result="hardAlpha"/>
<feOffset dx="1" dy="1"/>
<feGaussianBlur stdDeviation="0.5"/>
<feComposite in2="hardAlpha" operator="arithmetic" k2="-1" k3="1"/>
<feColorMatrix type="matrix" values="0 0 0 0 0 0 0 0 0 0 0 0 0 0 0 0 0 0 0.25 0"/>
<feBlend mode="normal" in2="shape" result="effect1_innerShadow_4765_58399"/>
<feColorMatrix in="SourceAlpha" type="matrix" values="0 0 0 0 0 0 0 0 0 0 0 0 0 0 0 0 0 0 127 0" result="hardAlpha"/>
<feOffset dx="-0.2" dy="-0.2"/>
<feGaussianBlur stdDeviation="0.05"/>
<feComposite in2="hardAlpha" operator="arithmetic" k2="-1" k3="1"/>
<feColorMatrix type="matrix" values="0 0 0 0 1 0 0 0 0 1 0 0 0 0 0.560784 0 0 0 1 0"/>
<feBlend mode="normal" in2="effect1_innerShadow_4765_58399" result="effect2_innerShadow_4765_58399"/>
</filter>
<filter id="filter2_ii_4765_58399" x="94.8965" y="177.611" width="114.805" height="37.1723" filterUnits="userSpaceOnUse" color-interpolation-filters="sRGB">
<feFlood flood-opacity="0" result="BackgroundImageFix"/>
<feBlend mode="normal" in="SourceGraphic" in2="BackgroundImageFix" result="shape"/>
<feColorMatrix in="SourceAlpha" type="matrix" values="0 0 0 0 0 0 0 0 0 0 0 0 0 0 0 0 0 0 127 0" result="hardAlpha"/>
<feOffset dy="0.2"/>
<feGaussianBlur stdDeviation="0.05"/>
<feComposite in2="hardAlpha" operator="arithmetic" k2="-1" k3="1"/>
<feColorMatrix type="matrix" values="0 0 0 0 0 0 0 0 0 0 0 0 0 0 0 0 0 0 0.25 0"/>
<feBlend mode="normal" in2="shape" result="effect1_innerShadow_4765_58399"/>
<feColorMatrix in="SourceAlpha" type="matrix" values="0 0 0 0 0 0 0 0 0 0 0 0 0 0 0 0 0 0 127 0" result="hardAlpha"/>
<feOffset dx="0.2"/>
<feGaussianBlur stdDeviation="0.05"/>
<feComposite in2="hardAlpha" operator="arithmetic" k2="-1" k3="1"/>
<feColorMatrix type="matrix" values="0 0 0 0 1 0 0 0 0 1 0 0 0 0 0.560784 0 0 0 1 0"/>
<feBlend mode="normal" in2="effect1_innerShadow_4765_58399" result="effect2_innerShadow_4765_58399"/>
</filter>
<filter id="filter3_d_4765_58399" x="110.303" y="155.807" width="125.26" height="97.8672" filterUnits="userSpaceOnUse" color-interpolation-filters="sRGB">
<feFlood flood-opacity="0" result="BackgroundImageFix"/>
<feColorMatrix in="SourceAlpha" type="matrix" values="0 0 0 0 0 0 0 0 0 0 0 0 0 0 0 0 0 0 127 0" result="hardAlpha"/>
<feOffset dx="-4" dy="-3"/>
<feGaussianBlur stdDeviation="2.5"/>
<feComposite in2="hardAlpha" operator="out"/>
<feColorMatrix type="matrix" values="0 0 0 0 0.858333 0 0 0 0 0.516455 0 0 0 0 0 0 0 0 0.3 0"/>
<feBlend mode="normal" in2="BackgroundImageFix" result="effect1_dropShadow_4765_58399"/>
<feBlend mode="normal" in="SourceGraphic" in2="effect1_dropShadow_4765_58399" result="shape"/>
</filter>
<filter id="filter4_d_4765_58399" x="133.107" y="155.324" width="63.0352" height="65.5508" filterUnits="userSpaceOnUse" color-interpolation-filters="sRGB">
<feFlood flood-opacity="0" result="BackgroundImageFix"/>
<feColorMatrix in="SourceAlpha" type="matrix" values="0 0 0 0 0 0 0 0 0 0 0 0 0 0 0 0 0 0 127 0" result="hardAlpha"/>
<feOffset dx="-4" dy="-3"/>
<feGaussianBlur stdDeviation="2.5"/>
<feComposite in2="hardAlpha" operator="out"/>
<feColorMatrix type="matrix" values="0 0 0 0 0.858333 0 0 0 0 0.516455 0 0 0 0 0 0 0 0 0.3 0"/>
<feBlend mode="normal" in2="BackgroundImageFix" result="effect1_dropShadow_4765_58399"/>
<feBlend mode="normal" in="SourceGraphic" in2="effect1_dropShadow_4765_58399" result="shape"/>
</filter>
<filter id="filter5_d_4765_58399" x="82.8477" y="89.3496" width="62.4219" height="70.9941" filterUnits="userSpaceOnUse" color-interpolation-filters="sRGB">
<feFlood flood-opacity="0" result="BackgroundImageFix"/>
<feColorMatrix in="SourceAlpha" type="matrix" values="0 0 0 0 0 0 0 0 0 0 0 0 0 0 0 0 0 0 127 0" result="hardAlpha"/>
<feOffset dx="2" dy="1"/>
<feGaussianBlur stdDeviation="2.5"/>
<feComposite in2="hardAlpha" operator="out"/>
<feColorMatrix type="matrix" values="0 0 0 0 0 0 0 0 0 0 0 0 0 0 0 0 0 0 0.1 0"/>
<feBlend mode="normal" in2="BackgroundImageFix" result="effect1_dropShadow_4765_58399"/>
<feBlend mode="normal" in="SourceGraphic" in2="effect1_dropShadow_4765_58399" result="shape"/>
</filter>
<filter id="filter6_d_4765_58399" x="71.668" y="68.8809" width="59.7734" height="65.9043" filterUnits="userSpaceOnUse" color-interpolation-filters="sRGB">
<feFlood flood-opacity="0" result="BackgroundImageFix"/>
<feColorMatrix in="SourceAlpha" type="matrix" values="0 0 0 0 0 0 0 0 0 0 0 0 0 0 0 0 0 0 127 0" result="hardAlpha"/>
<feOffset dx="-4" dy="-3"/>
<feGaussianBlur stdDeviation="2.5"/>
<feComposite in2="hardAlpha" operator="out"/>
<feColorMatrix type="matrix" values="0 0 0 0 0.858333 0 0 0 0 0.516455 0 0 0 0 0 0 0 0 0.3 0"/>
<feBlend mode="normal" in2="BackgroundImageFix" result="effect1_dropShadow_4765_58399"/>
<feBlend mode="normal" in="SourceGraphic" in2="effect1_dropShadow_4765_58399" result="shape"/>
</filter>
<filter id="filter7_d_4765_58399" x="153.791" y="98.2637" width="80.9414" height="76.1191" filterUnits="userSpaceOnUse" color-interpolation-filters="sRGB">
<feFlood flood-opacity="0" result="BackgroundImageFix"/>
<feColorMatrix in="SourceAlpha" type="matrix" values="0 0 0 0 0 0 0 0 0 0 0 0 0 0 0 0 0 0 127 0" result="hardAlpha"/>
<feOffset dx="-3" dy="-1"/>
<feGaussianBlur stdDeviation="3.5"/>
<feComposite in2="hardAlpha" operator="out"/>
<feColorMatrix type="matrix" values="0 0 0 0 0.670833 0 0 0 0 0.493632 0 0 0 0 0 0 0 0 0.4 0"/>
<feBlend mode="normal" in2="BackgroundImageFix" result="effect1_dropShadow_4765_58399"/>
<feBlend mode="normal" in="SourceGraphic" in2="effect1_dropShadow_4765_58399" result="shape"/>
</filter>
<filter id="filter8_d_4765_58399" x="35.8906" y="124.125" width="247.133" height="86.9805" filterUnits="userSpaceOnUse" color-interpolation-filters="sRGB">
<feFlood flood-opacity="0" result="BackgroundImageFix"/>
<feColorMatrix in="SourceAlpha" type="matrix" values="0 0 0 0 0 0 0 0 0 0 0 0 0 0 0 0 0 0 127 0" result="hardAlpha"/>
<feOffset dy="3"/>
<feComposite in2="hardAlpha" operator="out"/>
<feColorMatrix type="matrix" values="0 0 0 0 0 0 0 0 0 0 0 0 0 0 0 0 0 0 0.1 0"/>
<feBlend mode="normal" in2="BackgroundImageFix" result="effect1_dropShadow_4765_58399"/>
<feBlend mode="normal" in="SourceGraphic" in2="effect1_dropShadow_4765_58399" result="shape"/>
</filter>
<filter id="filter9_df_4765_58399" x="34.7324" y="12.8164" width="26.002" height="29.6621" filterUnits="userSpaceOnUse" color-interpolation-filters="sRGB">
<feFlood flood-opacity="0" result="BackgroundImageFix"/>
<feColorMatrix in="SourceAlpha" type="matrix" values="0 0 0 0 0 0 0 0 0 0 0 0 0 0 0 0 0 0 127 0" result="hardAlpha"/>
<feOffset dy="4"/>
<feGaussianBlur stdDeviation="2"/>
<feComposite in2="hardAlpha" operator="out"/>
<feColorMatrix type="matrix" values="0 0 0 0 0.891667 0 0 0 0 0.321 0 0 0 0 0 0 0 0 0.4 0"/>
<feBlend mode="normal" in2="BackgroundImageFix" result="effect1_dropShadow_4765_58399"/>
<feBlend mode="normal" in="SourceGraphic" in2="effect1_dropShadow_4765_58399" result="shape"/>
<feGaussianBlur stdDeviation="1" result="effect2_foregroundBlur_4765_58399"/>
</filter>
<filter id="filter10_d_4765_58399" x="38.7324" y="14.8164" width="19.002" height="22.6621" filterUnits="userSpaceOnUse" color-interpolation-filters="sRGB">
<feFlood flood-opacity="0" result="BackgroundImageFix"/>
<feColorMatrix in="SourceAlpha" type="matrix" values="0 0 0 0 0 0 0 0 0 0 0 0 0 0 0 0 0 0 127 0" result="hardAlpha"/>
<feOffset dx="1" dy="3"/>
<feComposite in2="hardAlpha" operator="out"/>
<feColorMatrix type="matrix" values="0 0 0 0 0.716667 0 0 0 0 0.473 0 0 0 0 0 0 0 0 0.26 0"/>
<feBlend mode="normal" in2="BackgroundImageFix" result="effect1_dropShadow_4765_58399"/>
<feBlend mode="normal" in="SourceGraphic" in2="effect1_dropShadow_4765_58399" result="shape"/>
</filter>
<filter id="filter11_df_4765_58399" x="246.213" y="38.2734" width="38.2773" height="45.8418" filterUnits="userSpaceOnUse" color-interpolation-filters="sRGB">
<feFlood flood-opacity="0" result="BackgroundImageFix"/>
<feColorMatrix in="SourceAlpha" type="matrix" values="0 0 0 0 0 0 0 0 0 0 0 0 0 0 0 0 0 0 127 0" result="hardAlpha"/>
<feOffset dy="4"/>
<feGaussianBlur stdDeviation="2.5"/>
<feComposite in2="hardAlpha" operator="out"/>
<feColorMatrix type="matrix" values="0 0 0 0 0.591667 0 0 0 0 0.1065 0 0 0 0 0 0 0 0 0.25 0"/>
<feBlend mode="normal" in2="BackgroundImageFix" result="effect1_dropShadow_4765_58399"/>
<feBlend mode="normal" in="SourceGraphic" in2="effect1_dropShadow_4765_58399" result="shape"/>
<feGaussianBlur stdDeviation="2" result="effect2_foregroundBlur_4765_58399"/>
</filter>
<filter id="filter12_d_4765_58399" x="251.213" y="42.2734" width="29.2773" height="35.8418" filterUnits="userSpaceOnUse" color-interpolation-filters="sRGB">
<feFlood flood-opacity="0" result="BackgroundImageFix"/>
<feColorMatrix in="SourceAlpha" type="matrix" values="0 0 0 0 0 0 0 0 0 0 0 0 0 0 0 0 0 0 127 0" result="hardAlpha"/>
<feOffset dx="1" dy="3"/>
<feComposite in2="hardAlpha" operator="out"/>
<feColorMatrix type="matrix" values="0 0 0 0 0.716667 0 0 0 0 0.473 0 0 0 0 0 0 0 0 0.26 0"/>
<feBlend mode="normal" in2="BackgroundImageFix" result="effect1_dropShadow_4765_58399"/>
<feBlend mode="normal" in="SourceGraphic" in2="effect1_dropShadow_4765_58399" result="shape"/>
</filter>
<filter id="filter13_df_4765_58399" x="-1.01562" y="238.967" width="49.9258" height="49.1621" filterUnits="userSpaceOnUse" color-interpolation-filters="sRGB">
<feFlood flood-opacity="0" result="BackgroundImageFix"/>
<feColorMatrix in="SourceAlpha" type="matrix" values="0 0 0 0 0 0 0 0 0 0 0 0 0 0 0 0 0 0 127 0" result="hardAlpha"/>
<feOffset dy="4"/>
<feGaussianBlur stdDeviation="2"/>
<feComposite in2="hardAlpha" operator="out"/>
<feColorMatrix type="matrix" values="0 0 0 0 0.754167 0 0 0 0 0.2715 0 0 0 0 0 0 0 0 0.25 0"/>
<feBlend mode="normal" in2="BackgroundImageFix" result="effect1_dropShadow_4765_58399"/>
<feBlend mode="normal" in="SourceGraphic" in2="effect1_dropShadow_4765_58399" result="shape"/>
<feGaussianBlur stdDeviation="2.5" result="effect2_foregroundBlur_4765_58399"/>
</filter>
<filter id="filter14_d_4765_58399" x="3.98438" y="243.967" width="40.9258" height="41.1621" filterUnits="userSpaceOnUse" color-interpolation-filters="sRGB">
<feFlood flood-opacity="0" result="BackgroundImageFix"/>
<feColorMatrix in="SourceAlpha" type="matrix" values="0 0 0 0 0 0 0 0 0 0 0 0 0 0 0 0 0 0 127 0" result="hardAlpha"/>
<feOffset dx="1" dy="5"/>
<feComposite in2="hardAlpha" operator="out"/>
<feColorMatrix type="matrix" values="0 0 0 0 0.716667 0 0 0 0 0.473 0 0 0 0 0 0 0 0 0.26 0"/>
<feBlend mode="normal" in2="BackgroundImageFix" result="effect1_dropShadow_4765_58399"/>
<feBlend mode="normal" in="SourceGraphic" in2="effect1_dropShadow_4765_58399" result="shape"/>
</filter>
<linearGradient id="paint0_linear_4765_58399" x1="93.7858" y1="155.621" x2="144.766" y2="340.153" gradientUnits="userSpaceOnUse">
<stop stop-color="#FF6B00"/>
<stop offset="1" stop-color="#FFD850" stop-opacity="0"/>
</linearGradient>
<linearGradient id="paint1_linear_4765_58399" x1="211.747" y1="98.0081" x2="157.017" y2="199.46" gradientUnits="userSpaceOnUse">
<stop stop-color="#FFB800"/>
<stop offset="1" stop-color="#FF5C00"/>
</linearGradient>
<linearGradient id="paint2_linear_4765_58399" x1="189.406" y1="119.042" x2="83.2554" y2="242.406" gradientUnits="userSpaceOnUse">
<stop stop-color="#FFDD2B"/>
<stop offset="1" stop-color="#FF9901"/>
</linearGradient>
<linearGradient id="paint3_linear_4765_58399" x1="77.0844" y1="184.787" x2="89.3495" y2="182.023" gradientUnits="userSpaceOnUse">
<stop stop-color="#FFFB98" stop-opacity="0.86"/>
<stop offset="1" stop-color="#FFFCB9" stop-opacity="0"/>
</linearGradient>
<linearGradient id="paint4_linear_4765_58399" x1="198.921" y1="109.838" x2="158.069" y2="201.596" gradientUnits="userSpaceOnUse">
<stop stop-color="#FFFFB1"/>
<stop offset="1" stop-color="#FFD954"/>
</linearGradient>
<linearGradient id="paint5_linear_4765_58399" x1="195.936" y1="107.671" x2="193.403" y2="121.502" gradientUnits="userSpaceOnUse">
<stop stop-color="#FFFFF7"/>
<stop offset="1" stop-color="#FFFFBE" stop-opacity="0"/>
</linearGradient>
<linearGradient id="paint6_linear_4765_58399" x1="208.347" y1="89.3135" x2="205.813" y2="103.144" gradientUnits="userSpaceOnUse">
<stop stop-color="#FFFFF7"/>
<stop offset="1" stop-color="#FFFFBE" stop-opacity="0"/>
</linearGradient>
<linearGradient id="paint7_linear_4765_58399" x1="225.04" y1="199.626" x2="211.21" y2="197.093" gradientUnits="userSpaceOnUse">
<stop stop-color="#FFFFF7"/>
<stop offset="1" stop-color="#FFFFBE" stop-opacity="0"/>
</linearGradient>
<linearGradient id="paint8_linear_4765_58399" x1="205.388" y1="186.809" x2="93.8822" y2="208.244" gradientUnits="userSpaceOnUse">
<stop stop-color="#F9C50D"/>
<stop offset="1" stop-color="#FA9600"/>
</linearGradient>
<linearGradient id="paint9_linear_4765_58399" x1="166.753" y1="171.345" x2="234.563" y2="223.026" gradientUnits="userSpaceOnUse">
<stop stop-color="#D1FF4F"/>
<stop offset="1" stop-color="#A7FF18"/>
</linearGradient>
<linearGradient id="paint10_linear_4765_58399" x1="176.078" y1="178.73" x2="144.728" y2="167.762" gradientUnits="userSpaceOnUse">
<stop stop-color="white" stop-opacity="0"/>
<stop offset="0.655145" stop-color="white"/>
<stop offset="1" stop-color="white" stop-opacity="0"/>
</linearGradient>
<linearGradient id="paint11_linear_4765_58399" x1="106.432" y1="93.3496" x2="116.59" y2="108.299" gradientUnits="userSpaceOnUse">
<stop stop-color="#A7FF18"/>
<stop offset="1" stop-color="#D1FF4F"/>
</linearGradient>
<linearGradient id="paint12_linear_4765_58399" x1="117.682" y1="101.294" x2="124.937" y2="133.706" gradientUnits="userSpaceOnUse">
<stop stop-color="white" stop-opacity="0"/>
<stop offset="0.655145" stop-color="white"/>
<stop offset="1" stop-color="white" stop-opacity="0"/>
</linearGradient>
<linearGradient id="paint13_linear_4765_58399" x1="152.768" y1="236.39" x2="144.075" y2="143.52" gradientUnits="userSpaceOnUse">
<stop stop-color="#FFEB33"/>
<stop offset="1" stop-color="white" stop-opacity="0"/>
</linearGradient>
<linearGradient id="paint14_linear_4765_58399" x1="40.3594" y1="21.3965" x2="93.8874" y2="96.535" gradientUnits="userSpaceOnUse">
<stop stop-color="#FFC122"/>
<stop offset="1" stop-color="#FFD66C" stop-opacity="0"/>
</linearGradient>
<linearGradient id="paint15_linear_4765_58399" x1="253.211" y1="45.8812" x2="306.613" y2="142.553" gradientUnits="userSpaceOnUse">
<stop stop-color="#FFBB0C"/>
<stop offset="1" stop-color="#FFD66C" stop-opacity="0"/>
</linearGradient>
<linearGradient id="paint16_linear_4765_58399" x1="-10.9188" y1="233.356" x2="53.2707" y2="330.055" gradientUnits="userSpaceOnUse">
<stop stop-color="#FFB803"/>
<stop offset="1" stop-color="#FFD66C" stop-opacity="0"/>
</linearGradient>
<linearGradient id="paint17_linear_4765_58399" x1="42.1821" y1="17.8393" x2="56.6131" y2="29.344" gradientUnits="userSpaceOnUse">
<stop stop-color="#FFE97B"/>
<stop offset="1" stop-color="#F4FF7B"/>
</linearGradient>
<linearGradient id="paint18_linear_4765_58399" x1="53.4562" y1="34.7794" x2="40.3402" y2="18.5672" gradientUnits="userSpaceOnUse">
<stop offset="0.0940069" stop-color="#FF9E0C"/>
<stop offset="0.517111" stop-color="#FFE97B"/>
<stop offset="1" stop-color="#FF7A00"/>
</linearGradient>
<linearGradient id="paint19_linear_4765_58399" x1="46.509" y1="27.9754" x2="50.1116" y2="20.706" gradientUnits="userSpaceOnUse">
<stop stop-color="#FFAC0B"/>
<stop offset="1" stop-color="#FFB800" stop-opacity="0"/>
</linearGradient>
<linearGradient id="paint20_linear_4765_58399" x1="258.305" y1="71.2169" x2="267.192" y2="42.3664" gradientUnits="userSpaceOnUse">
<stop stop-color="#FFE97B"/>
<stop offset="1" stop-color="#F4FF7B"/>
</linearGradient>
<linearGradient id="paint21_linear_4765_58399" x1="277.355" y1="43.9227" x2="260.515" y2="73.586" gradientUnits="userSpaceOnUse">
<stop offset="0.0940069" stop-color="#FF9E0C"/>
<stop offset="0.517111" stop-color="#FFE97B"/>
<stop offset="1" stop-color="#FF7A00"/>
</linearGradient>
<linearGradient id="paint22_linear_4765_58399" x1="271.136" y1="58.5623" x2="257.915" y2="57.424" gradientUnits="userSpaceOnUse">
<stop stop-color="#FFAC0B"/>
<stop offset="1" stop-color="#FFB800" stop-opacity="0"/>
</linearGradient>
<linearGradient id="paint23_linear_4765_58399" x1="37.9022" y1="273.036" x2="14.1467" y2="244.256" gradientUnits="userSpaceOnUse">
<stop stop-color="#FFE97B"/>
<stop offset="1" stop-color="#F4FF7B"/>
</linearGradient>
<linearGradient id="paint24_linear_4765_58399" x1="3.26625" y1="250.825" x2="36.494" y2="276.785" gradientUnits="userSpaceOnUse">
<stop offset="0.0940069" stop-color="#FF9E0C"/>
<stop offset="0.517111" stop-color="#FFE97B"/>
<stop offset="1" stop-color="#FF7A00"/>
</linearGradient>
<linearGradient id="paint25_linear_4765_58399" x1="17.2663" y1="264.625" x2="31.8393" y2="257.092" gradientUnits="userSpaceOnUse">
<stop stop-color="#FFAC0B"/>
<stop offset="1" stop-color="#FFB800" stop-opacity="0"/>
</linearGradient>
<clipPath id="clip0_4765_58399">
<rect width="326" height="326" fill="white"/>
</clipPath>
</defs>
</svg>
