<svg width="135" height="40" viewBox="0 0 135 40" fill="none" xmlns="http://www.w3.org/2000/svg">
<rect x="0.5" y="0.5" width="134" height="39" rx="3.5" fill="#00142A"/>
<path d="M41.63 7.574V14H43.952C44.987 14 45.77 13.712 46.31 13.136C46.823 12.578 47.084 11.795 47.084 10.787C47.084 9.77 46.832 8.987 46.328 8.447C45.788 7.862 45.005 7.574 43.97 7.574H41.63ZM42.611 8.411H43.79C44.6 8.411 45.194 8.6 45.572 8.987C45.932 9.365 46.121 9.959 46.121 10.787C46.121 11.597 45.932 12.191 45.563 12.578C45.185 12.965 44.582 13.163 43.772 13.163H42.611V8.411ZM50.1332 9.221C49.4312 9.221 48.8642 9.455 48.4412 9.923C48.0182 10.382 47.8112 10.967 47.8112 11.678C47.8112 12.38 48.0182 12.965 48.4322 13.415C48.8642 13.883 49.4312 14.126 50.1332 14.126C50.8352 14.126 51.4022 13.883 51.8342 13.415C52.2482 12.965 52.4552 12.38 52.4552 11.678C52.4552 10.967 52.2392 10.382 51.8252 9.923C51.4022 9.455 50.8352 9.221 50.1332 9.221ZM50.1332 10.004C50.5742 10.004 50.9162 10.175 51.1682 10.526C51.3842 10.823 51.4922 11.21 51.4922 11.678C51.4922 12.137 51.3842 12.515 51.1682 12.821C50.9162 13.163 50.5742 13.343 50.1332 13.343C49.6922 13.343 49.3502 13.163 49.1072 12.821C48.8912 12.524 48.7922 12.146 48.7922 11.678C48.7922 11.21 48.8912 10.823 49.1072 10.526C49.3502 10.175 49.6922 10.004 50.1332 10.004ZM52.8663 9.347L54.4413 14H55.3233L56.2953 10.517L57.2673 14H58.1493L59.7243 9.347H58.6713L57.6903 12.866L56.7363 9.347H55.8543L54.9003 12.866L53.9193 9.347H52.8663ZM62.6714 9.221C62.3834 9.221 62.1224 9.275 61.8884 9.401C61.6544 9.518 61.4474 9.689 61.2674 9.923V9.347H60.3134V14H61.2674V11.201C61.3034 10.823 61.4384 10.526 61.6544 10.31C61.8524 10.112 62.0954 10.022 62.3654 10.022C63.0854 10.022 63.4544 10.418 63.4544 11.21V14H64.4084V11.129C64.4084 9.851 63.8234 9.221 62.6714 9.221ZM65.607 7.448V14H66.561V7.448H65.607ZM69.891 9.221C69.189 9.221 68.622 9.455 68.199 9.923C67.776 10.382 67.569 10.967 67.569 11.678C67.569 12.38 67.776 12.965 68.19 13.415C68.622 13.883 69.189 14.126 69.891 14.126C70.593 14.126 71.16 13.883 71.592 13.415C72.006 12.965 72.213 12.38 72.213 11.678C72.213 10.967 71.997 10.382 71.583 9.923C71.16 9.455 70.593 9.221 69.891 9.221ZM69.891 10.004C70.332 10.004 70.674 10.175 70.926 10.526C71.142 10.823 71.25 11.21 71.25 11.678C71.25 12.137 71.142 12.515 70.926 12.821C70.674 13.163 70.332 13.343 69.891 13.343C69.45 13.343 69.108 13.163 68.865 12.821C68.649 12.524 68.55 12.146 68.55 11.678C68.55 11.21 68.649 10.823 68.865 10.526C69.108 10.175 69.45 10.004 69.891 10.004ZM75.2161 9.221C74.6401 9.221 74.1721 9.32 73.8301 9.536C73.4341 9.77 73.1821 10.148 73.0831 10.652L74.0281 10.733C74.0821 10.472 74.2171 10.283 74.4331 10.157C74.6131 10.049 74.8561 9.995 75.1531 9.995C75.8551 9.995 76.2061 10.319 76.2061 10.967V11.156L75.1621 11.183C74.4781 11.201 73.9381 11.336 73.5601 11.606C73.1461 11.885 72.9391 12.29 72.9391 12.812C72.9391 13.199 73.0831 13.514 73.3801 13.757C73.6501 14 74.0281 14.126 74.5141 14.126C74.9281 14.126 75.2881 14.045 75.5941 13.901C75.8641 13.766 76.0891 13.577 76.2691 13.343V14H77.1511V11.03C77.1511 10.463 77.0071 10.031 76.7281 9.734C76.4041 9.392 75.9001 9.221 75.2161 9.221ZM76.2061 11.849V12.119C76.2061 12.479 76.0531 12.785 75.7651 13.028C75.4771 13.271 75.1351 13.397 74.7301 13.397C74.4871 13.397 74.2891 13.334 74.1451 13.217C73.9921 13.1 73.9201 12.956 73.9201 12.776C73.9201 12.2 74.3521 11.894 75.2251 11.876L76.2061 11.849ZM81.5911 7.448V10.04C81.2131 9.491 80.7361 9.221 80.1691 9.221C79.5031 9.221 78.9721 9.464 78.5941 9.95C78.2341 10.4 78.0631 10.967 78.0631 11.651C78.0631 12.362 78.2431 12.947 78.6031 13.397C78.9901 13.883 79.5301 14.126 80.2141 14.126C80.8441 14.126 81.3301 13.892 81.6541 13.442V14H82.5451V7.448H81.5911ZM80.3851 9.995C80.7361 9.995 81.0241 10.13 81.2581 10.418C81.4921 10.724 81.6181 11.129 81.6181 11.633V11.714C81.6181 12.182 81.5191 12.56 81.3211 12.857C81.0871 13.181 80.7721 13.352 80.3581 13.352C79.8901 13.352 79.5391 13.181 79.3231 12.848C79.1341 12.56 79.0441 12.164 79.0441 11.651C79.0441 11.138 79.1431 10.742 79.3411 10.472C79.5661 10.148 79.9171 9.995 80.3851 9.995ZM88.5541 7.574L86.0791 14H87.1231L87.7261 12.344H90.4891L91.0921 14H92.1451L89.6701 7.574H88.5541ZM88.0231 11.534L89.0941 8.627H89.1301L90.1921 11.534H88.0231ZM92.7736 7.574V14H93.7546V11.498H95.4196C96.9586 11.498 97.7326 10.841 97.7326 9.527C97.7326 8.222 96.9676 7.574 95.4376 7.574H92.7736ZM93.7546 8.411H95.3566C95.8336 8.411 96.1846 8.501 96.4096 8.681C96.6346 8.843 96.7516 9.131 96.7516 9.527C96.7516 9.923 96.6346 10.211 96.4186 10.391C96.1936 10.571 95.8426 10.661 95.3566 10.661H93.7546V8.411ZM102.731 7.574L99.6256 10.679V7.574H98.6446V14H99.6256V11.777L100.463 10.976L103.073 14H104.387L101.129 10.337L103.973 7.574H102.731Z" fill="white"/>
<path d="M45.4 19.576L41 31H42.856L43.928 28.056H48.84L49.912 31H51.784L47.384 19.576H45.4ZM44.456 26.616L46.36 21.448H46.424L48.312 26.616H44.456ZM56.9333 22.504C56.4213 22.504 55.9573 22.6 55.5413 22.824C55.1253 23.032 54.7573 23.336 54.4373 23.752V22.728H52.7413V31H54.4373V26.024C54.5013 25.352 54.7413 24.824 55.1253 24.44C55.4773 24.088 55.9093 23.928 56.3893 23.928C57.6693 23.928 58.3253 24.632 58.3253 26.04V31H60.0213V25.896C60.0213 23.624 58.9813 22.504 56.9333 22.504ZM67.912 19.352V23.96C67.24 22.984 66.392 22.504 65.384 22.504C64.2 22.504 63.256 22.936 62.584 23.8C61.944 24.6 61.64 25.608 61.64 26.824C61.64 28.088 61.96 29.128 62.6 29.928C63.288 30.792 64.248 31.224 65.464 31.224C66.584 31.224 67.448 30.808 68.024 30.008V31H69.608V19.352H67.912ZM65.768 23.88C66.392 23.88 66.904 24.12 67.32 24.632C67.736 25.176 67.96 25.896 67.96 26.792V26.936C67.96 27.768 67.784 28.44 67.432 28.968C67.016 29.544 66.456 29.848 65.72 29.848C64.888 29.848 64.264 29.544 63.88 28.952C63.544 28.44 63.384 27.736 63.384 26.824C63.384 25.912 63.56 25.208 63.912 24.728C64.312 24.152 64.936 23.88 65.768 23.88ZM75.3625 22.504C74.8505 22.504 74.4025 22.648 74.0185 22.968C73.6985 23.192 73.4265 23.528 73.2185 23.976V22.728H71.5225V31H73.2185V26.616C73.2185 25.896 73.4265 25.304 73.8585 24.856C74.2585 24.44 74.7225 24.232 75.2345 24.232C75.6185 24.232 76.0185 24.28 76.4345 24.408V22.712C76.1465 22.568 75.7785 22.504 75.3625 22.504ZM81.2836 22.504C80.0356 22.504 79.0276 22.92 78.2756 23.752C77.5236 24.568 77.1556 25.608 77.1556 26.872C77.1556 28.12 77.5236 29.16 78.2596 29.96C79.0276 30.792 80.0356 31.224 81.2836 31.224C82.5316 31.224 83.5396 30.792 84.3076 29.96C85.0436 29.16 85.4116 28.12 85.4116 26.872C85.4116 25.608 85.0276 24.568 84.2916 23.752C83.5396 22.92 82.5316 22.504 81.2836 22.504ZM81.2836 23.896C82.0676 23.896 82.6756 24.2 83.1236 24.824C83.5076 25.352 83.6996 26.04 83.6996 26.872C83.6996 27.688 83.5076 28.36 83.1236 28.904C82.6756 29.512 82.0676 29.832 81.2836 29.832C80.4996 29.832 79.8916 29.512 79.4596 28.904C79.0756 28.376 78.8996 27.704 78.8996 26.872C78.8996 26.04 79.0756 25.352 79.4596 24.824C79.8916 24.2 80.4996 23.896 81.2836 23.896ZM88.2225 19.416C87.8865 19.416 87.6145 19.512 87.3905 19.736C87.1665 19.944 87.0545 20.216 87.0545 20.552C87.0545 20.872 87.1665 21.16 87.3905 21.384C87.6145 21.592 87.8865 21.704 88.2225 21.704C88.5425 21.704 88.8305 21.592 89.0545 21.384C89.2785 21.16 89.4065 20.888 89.4065 20.552C89.4065 20.216 89.2945 19.944 89.0705 19.736C88.8465 19.512 88.5585 19.416 88.2225 19.416ZM87.3745 22.728V31H89.0705V22.728H87.3745ZM97.3183 19.352V23.96C96.6463 22.984 95.7983 22.504 94.7903 22.504C93.6063 22.504 92.6623 22.936 91.9903 23.8C91.3503 24.6 91.0463 25.608 91.0463 26.824C91.0463 28.088 91.3663 29.128 92.0063 29.928C92.6943 30.792 93.6543 31.224 94.8703 31.224C95.9903 31.224 96.8543 30.808 97.4303 30.008V31H99.0143V19.352H97.3183ZM95.1743 23.88C95.7983 23.88 96.3103 24.12 96.7263 24.632C97.1423 25.176 97.3663 25.896 97.3663 26.792V26.936C97.3663 27.768 97.1903 28.44 96.8383 28.968C96.4223 29.544 95.8623 29.848 95.1263 29.848C94.2943 29.848 93.6703 29.544 93.2863 28.952C92.9503 28.44 92.7903 27.736 92.7903 26.824C92.7903 25.912 92.9663 25.208 93.3183 24.728C93.7183 24.152 94.3423 23.88 95.1743 23.88Z" fill="white"/>
<path d="M26.5039 23.4964C26.4697 23.4964 26.4403 23.4964 26.4061 23.4916C26.3719 23.4867 26.3426 23.4819 26.3083 23.4771C26.2741 23.4723 26.2448 23.4627 26.2106 23.453C26.1813 23.4434 26.147 23.4289 26.1177 23.4193L26.0297 23.3759C26.0004 23.3614 25.9711 23.3422 25.9466 23.3229C25.9173 23.3036 25.8929 23.2843 25.8684 23.2602C25.844 23.2361 25.8196 23.2169 25.7951 23.1928C25.7707 23.1687 25.7511 23.1446 25.7316 23.1157C25.712 23.0867 25.6925 23.0626 25.6729 23.0337C25.6534 23.0048 25.6387 22.9759 25.624 22.947C25.6094 22.9181 25.5947 22.8843 25.58 22.8554C25.5654 22.8217 25.5556 22.7928 25.5458 22.759C25.536 22.7253 25.5263 22.6916 25.5214 22.6578L25.5067 22.5566C25.5018 22.5229 25.5018 22.4892 25.5018 22.4554C25.5018 22.4217 25.5018 22.388 25.5067 22.3542L25.5214 22.253C25.5263 22.2193 25.536 22.1855 25.5458 22.1518C25.5556 22.1181 25.5654 22.0892 25.58 22.0554C25.5947 22.0217 25.6045 21.9928 25.624 21.9639C25.6387 21.9349 25.6582 21.906 25.6729 21.8771C25.6925 21.8482 25.712 21.8193 25.7316 21.7952C25.7511 21.7711 25.7756 21.7422 25.8 21.7181C25.8244 21.694 25.8489 21.6699 25.8733 21.6506C25.8978 21.6313 25.9271 21.6072 25.9515 21.588C25.9809 21.5687 26.0053 21.5494 26.0346 21.5349L26.1226 21.4916C26.1519 21.4771 26.1862 21.4675 26.2155 21.4578C26.2448 21.4482 26.279 21.4386 26.3132 21.4337C26.3475 21.4289 26.3768 21.4241 26.411 21.4193C26.4452 21.4145 26.4745 21.4145 26.5088 21.4145C26.543 21.4145 26.5723 21.4145 26.6065 21.4193C26.6407 21.4241 26.6701 21.4289 26.7043 21.4337C26.7385 21.4386 26.7678 21.4482 26.802 21.4578C26.8314 21.4675 26.8656 21.4771 26.8949 21.4916L26.9829 21.5349C27.0122 21.5494 27.0415 21.5687 27.066 21.588C27.0953 21.6072 27.1198 21.6265 27.1442 21.6506C27.1686 21.6747 27.1931 21.694 27.2175 21.7181C27.242 21.7422 27.2615 21.7663 27.2859 21.7952C27.3055 21.8193 27.3251 21.8482 27.3446 21.8771C27.3642 21.906 27.3788 21.9349 27.3935 21.9639C27.4081 21.9928 27.4228 22.0265 27.4375 22.0554C27.4521 22.0892 27.4619 22.1181 27.4717 22.1518C27.4815 22.1855 27.4912 22.2193 27.4961 22.253L27.5108 22.3542C27.5157 22.388 27.5157 22.4217 27.5157 22.4554C27.5157 22.4892 27.5157 22.5229 27.5108 22.5566L27.4961 22.6578C27.4912 22.6916 27.4815 22.7253 27.4717 22.759C27.4619 22.7928 27.4521 22.8265 27.4375 22.8554C27.4228 22.8892 27.413 22.9181 27.3935 22.947C27.3739 22.9759 27.3593 23.0048 27.3446 23.0337C27.3251 23.0626 27.3055 23.0916 27.2859 23.1157C27.2664 23.1398 27.242 23.1687 27.2175 23.1928C27.1931 23.2169 27.1686 23.241 27.1442 23.2602C27.1198 23.2843 27.0904 23.3036 27.066 23.3229C27.0367 23.3422 27.0122 23.3614 26.9829 23.3759L26.8949 23.4193C26.8656 23.4337 26.8314 23.4434 26.802 23.453C26.7727 23.4627 26.7385 23.4723 26.7043 23.4771C26.6701 23.4819 26.6407 23.4867 26.6065 23.4916C26.5723 23.4916 26.5381 23.4964 26.5039 23.4964ZM15.4912 23.4964C15.457 23.4964 15.4277 23.4964 15.3935 23.4916C15.3593 23.4867 15.3299 23.4819 15.2957 23.4771C15.2615 23.4723 15.2322 23.4627 15.198 23.453C15.1686 23.4434 15.1344 23.4337 15.1051 23.4193L15.0171 23.3759C14.9878 23.3614 14.9585 23.3422 14.934 23.3229C14.9047 23.3036 14.8802 23.2843 14.8558 23.2602C14.8314 23.2361 14.8069 23.2169 14.7825 23.1928C14.758 23.1687 14.7385 23.1446 14.7141 23.1157C14.6945 23.0916 14.6749 23.0626 14.6554 23.0337C14.6358 23.0048 14.6212 22.9759 14.6065 22.947C14.5919 22.9181 14.5772 22.8843 14.5625 22.8554C14.5479 22.8265 14.5381 22.7928 14.5283 22.759C14.5185 22.7253 14.5088 22.6916 14.5039 22.6578L14.4892 22.5566C14.4843 22.5229 14.4843 22.4892 14.4843 22.4554C14.4843 22.4217 14.4843 22.388 14.4892 22.3542L14.5039 22.253C14.5088 22.2193 14.5185 22.1855 14.5283 22.1518C14.5381 22.1181 14.5479 22.0892 14.5625 22.0554C14.5772 22.0217 14.587 21.9928 14.6065 21.9639C14.6212 21.9349 14.6407 21.906 14.6554 21.8771C14.6749 21.8482 14.6945 21.8193 14.7141 21.7952C14.7336 21.7711 14.758 21.7422 14.7825 21.7181C14.8069 21.694 14.8314 21.6699 14.8558 21.6506C14.8802 21.6265 14.9096 21.6072 14.934 21.588C14.9633 21.5687 14.9878 21.5494 15.0171 21.5349L15.1051 21.4916C15.1344 21.4771 15.1686 21.4675 15.198 21.4578C15.2273 21.4482 15.2615 21.4386 15.2957 21.4337C15.3299 21.4289 15.3593 21.4241 15.3935 21.4193C15.4277 21.4145 15.457 21.4145 15.4912 21.4145C15.5255 21.4145 15.5548 21.4145 15.589 21.4193C15.6232 21.4241 15.6525 21.4289 15.6868 21.4337C15.721 21.4386 15.7503 21.4482 15.7845 21.4578C15.8138 21.4675 15.8481 21.4771 15.8774 21.4916L15.9654 21.5349C15.9947 21.5494 16.024 21.5687 16.0485 21.588C16.0778 21.6072 16.1022 21.6265 16.1267 21.6506C16.1511 21.6747 16.1756 21.694 16.2 21.7181C16.2244 21.7422 16.244 21.7663 16.2684 21.7952C16.288 21.8193 16.3075 21.8482 16.3271 21.8771C16.3466 21.906 16.3613 21.9349 16.376 21.9639C16.3906 21.9928 16.4053 22.0265 16.42 22.0554C16.4346 22.0892 16.4444 22.1181 16.4542 22.1518C16.464 22.1855 16.4737 22.2193 16.4786 22.253L16.4933 22.3542C16.4982 22.388 16.4982 22.4217 16.4982 22.4554C16.4982 22.4892 16.4982 22.5229 16.4933 22.5566L16.4786 22.6578C16.4737 22.6916 16.464 22.7253 16.4542 22.759C16.4444 22.7928 16.4346 22.8217 16.42 22.8554C16.4053 22.8892 16.3955 22.9181 16.376 22.947C16.3613 22.9759 16.3418 23.0048 16.3271 23.0337C16.3075 23.0626 16.288 23.0916 16.2684 23.1157C16.2489 23.1398 16.2244 23.1687 16.2 23.1928C16.1756 23.2169 16.1511 23.241 16.1267 23.2602C16.1022 23.2843 16.0729 23.3036 16.0485 23.3229C16.0191 23.3422 15.9947 23.3614 15.9654 23.3759L15.8774 23.4193C15.8481 23.4337 15.8138 23.4434 15.7845 23.453C15.7552 23.4627 15.721 23.4723 15.6868 23.4771C15.6525 23.4819 15.6232 23.4867 15.589 23.4916C15.5548 23.4916 15.5255 23.4964 15.4912 23.4964ZM26.8558 17.2217L28.8452 13.6361C28.8599 13.612 28.8697 13.588 28.8794 13.559C28.8892 13.5349 28.8941 13.506 28.899 13.4771C28.9039 13.4482 28.9039 13.4241 28.9039 13.3952C28.9039 13.3663 28.899 13.3422 28.8892 13.3133C28.8843 13.2843 28.8745 13.2602 28.8599 13.2361C28.8501 13.212 28.8354 13.188 28.8208 13.1639C28.8061 13.1398 28.7866 13.1205 28.767 13.106C28.7475 13.0867 28.7279 13.0723 28.7035 13.0578C28.679 13.0434 28.6546 13.0337 28.6301 13.0241C28.6057 13.0145 28.5813 13.0096 28.5519 13.0048C28.5275 13 28.4982 13 28.4737 13C28.4493 13 28.42 13.0048 28.3955 13.0145C28.3711 13.0193 28.3466 13.0289 28.3222 13.0434C28.2978 13.0578 28.2782 13.0723 28.2538 13.0867C28.2342 13.1012 28.2147 13.1205 28.1951 13.1446C28.1756 13.1639 28.1609 13.188 28.1511 13.212L26.1324 16.8458C24.5927 16.1133 22.8623 15.7084 21 15.7084C19.1377 15.7084 17.4073 16.1181 15.8676 16.8458L13.8538 13.212C13.8391 13.188 13.8244 13.1639 13.8098 13.1446L13.7511 13.0867C13.7316 13.0723 13.7071 13.0578 13.6827 13.0434C13.6582 13.0289 13.6338 13.0193 13.6094 13.0145C13.5849 13.0096 13.5556 13.0048 13.5312 13C13.5067 13 13.4774 13 13.453 13.0048C13.4285 13.0096 13.3992 13.0145 13.3747 13.0241C13.3503 13.0337 13.3259 13.0434 13.3014 13.0578C13.277 13.0723 13.2574 13.0867 13.2379 13.106C13.2183 13.1253 13.1988 13.1446 13.1841 13.1639C13.1694 13.188 13.1548 13.2072 13.1401 13.2361C13.1303 13.2602 13.1206 13.2843 13.1108 13.3133C13.1059 13.3422 13.101 13.3663 13.0961 13.3952C13.0912 13.4241 13.0961 13.4482 13.101 13.4771C13.1059 13.506 13.1108 13.5301 13.1206 13.559C13.1303 13.5831 13.1401 13.612 13.1548 13.6361L15.1393 17.2217C11.7079 19.1542 9.38615 22.7687 9 27H33C32.6138 22.7687 30.2921 19.1542 26.8558 17.2217Z" fill="white"/>
<rect x="0.5" y="0.5" width="134" height="39" rx="3.5" stroke="#00142A"/>
</svg>
